<svg width="95" height="95" viewBox="0 0 95 95" fill="none" xmlns="http://www.w3.org/2000/svg">
<path fill-rule="evenodd" clip-rule="evenodd" d="M66.746 59.3395L69.6751 54.3915H83.648L87.9626 46.9499L79.3335 32.1061H67.1814L62.9855 24.7436H58.2751V19.7561H65.9543L70.1501 27.1582H76.4439L67.7751 12.3145H50.873V32.1061H57.721L60.6105 37.054H50.873V46.9499H59.8189L63.9751 39.5478H75.098L77.948 44.4957H66.8647L62.7085 51.8978H50.873V69.2353H64.3314L61.4814 74.1832H50.873V81.5853H67.7751L80.7585 59.3395H72.4855L69.596 64.2874H58.2751V59.3395H66.746Z" fill="#AE00F9"/>
<path fill-rule="evenodd" clip-rule="evenodd" d="M30.0126 59.3395L27.0834 54.3915H13.1105L8.7959 46.9499L17.4251 32.1061H29.5771L33.773 24.7436H38.4834V19.7561H30.8042L26.6084 27.1582H20.3146L28.9834 12.3145H45.9251V32.1061H39.0376L36.148 37.054H45.9251V46.9499H36.9396L32.7834 39.5478H21.6605L18.8105 44.4957H29.8938L34.0501 51.8978H45.9251V69.2353H32.4271L35.2771 74.1832H45.9251V81.5853H28.9834L16.0001 59.3395H24.273L27.1626 64.2874H38.4834V59.3395H30.0126Z" fill="#D166FF"/>
</svg>
