<svg width="1024" height="1024" viewBox="0 0 1024 1024" fill="none" xmlns="http://www.w3.org/2000/svg">
<g opacity="0.2">
<path fill-rule="evenodd" clip-rule="evenodd" d="M719.455 639.621L751.028 586.288H901.641L948.148 506.075L855.135 346.075H724.148L678.921 266.715H628.148V212.955H710.921L756.148 292.741H823.988L730.548 132.741H548.361V346.075H622.175L653.321 399.408H548.361V506.075H644.788L689.588 426.288H809.481L840.201 479.621H720.735L675.935 559.408H548.361V746.288H693.428L662.708 799.621H548.361V879.408H730.548L870.495 639.621H781.321L750.175 692.954H628.148V639.621H719.455Z" fill="#AE00F9"/>
<path fill-rule="evenodd" clip-rule="evenodd" d="M323.508 639.621L291.934 586.288H141.321L94.8145 506.075L187.828 346.075H318.814L364.041 266.715H414.814V212.955H332.041L286.814 292.741H218.974L312.414 132.741H495.028V346.075H420.788L389.641 399.408H495.028V506.075H398.174L353.374 426.288H233.481L202.761 479.621H322.228L367.028 559.408H495.028V746.288H349.534L380.254 799.621H495.028V879.408H312.414L172.468 639.621H261.641L292.788 692.954H414.814V639.621H323.508Z" fill="#D166FF"/>
</g>
</svg>
